<?xml version="1.0" standalone="no"?>
<!DOCTYPE svg PUBLIC "-//W3C//DTD SVG 20010904//EN"
 "http://www.w3.org/TR/2001/REC-SVG-20010904/DTD/svg10.dtd">
<svg version="1.0" xmlns="http://www.w3.org/2000/svg"
 width="92.000000pt" height="94.000000pt" viewBox="0 0 92.000000 94.000000"
 preserveAspectRatio="xMidYMid meet">

<g transform="translate(0.000000,94.000000) scale(0.100000,-0.100000)"
fill="#000000" stroke="none">
<path d="M176 888 c-116 -67 -113 -256 4 -315 79 -41 152 -24 243 57 46 41
107 122 140 186 l16 31 -37 -19 c-50 -26 -93 -17 -167 34 -76 53 -139 61 -199
26z m108 -284 c28 3 66 16 87 31 51 33 59 32 23 -6 -39 -42 -75 -59 -123 -59
-51 0 -89 15 -123 48 -43 40 -33 44 30 11 48 -26 64 -30 106 -25z"/>
<path d="M144 494 c-48 -16 -62 -31 -75 -74 -9 -28 -8 -46 1 -74 18 -55 52
-76 121 -76 l59 0 0 31 0 32 -21 -27 c-39 -49 -92 -25 -109 51 -23 101 54 176
109 107 l21 -27 0 31 c0 27 -4 30 -35 34 -20 2 -52 -1 -71 -8z"/>
<path d="M298 488 c16 -16 16 -190 0 -206 -9 -9 6 -12 70 -12 l82 0 0 31 c0
31 0 31 -17 11 -10 -11 -30 -23 -45 -26 -25 -6 -26 -4 -30 45 -3 58 10 73 42
44 19 -18 20 -17 20 14 0 28 -2 30 -19 20 -31 -20 -48 -5 -45 38 2 35 4 38 29
36 15 -1 36 -10 46 -19 18 -16 19 -16 19 9 l0 27 -82 0 c-64 0 -79 -3 -70 -12z"/>
<path d="M560 417 c-18 -45 -41 -97 -51 -114 l-18 -33 31 0 c25 0 28 2 18 15
-6 8 -9 23 -5 35 10 31 78 29 93 -4 7 -17 7 -27 -1 -35 -8 -8 2 -11 37 -11 40
0 46 2 37 14 -6 7 -31 57 -55 110 -24 53 -45 99 -48 101 -2 3 -19 -32 -38 -78z
m39 -28 c6 -18 11 -34 11 -35 0 -2 -13 -4 -30 -4 -16 0 -30 2 -30 4 0 14 24
66 30 66 4 0 13 -14 19 -31z"/>
<path d="M764 493 c-6 -5 -16 -18 -23 -30 -17 -33 1 -67 51 -95 45 -25 58 -49
38 -73 -19 -23 -46 -18 -69 11 l-21 27 0 -32 0 -32 51 3 c43 2 55 8 73 31 19
26 19 30 6 55 -9 15 -35 40 -58 55 -32 22 -42 35 -40 51 5 34 48 34 75 0 l22
-28 -3 29 c-3 28 -6 30 -47 33 -24 1 -49 -1 -55 -5z"/>
</g>
</svg>
